<?xml version="1.0" encoding="UTF-8"?>
<svg width="176px" height="176px" viewBox="0 0 176 176" version="1.1" xmlns="http://www.w3.org/2000/svg" xmlns:xlink="http://www.w3.org/1999/xlink">
    <title>illustration</title>
    <g id="游님-Mobile" stroke="none" stroke-width="1" fill="none" fill-rule="evenodd">
        <g id="Mobile/Sign-Wallet-(Full-screen)" transform="translate(-99.000000, -205.000000)">
            <g id="illustration" transform="translate(99.000000, 205.000000)">
                <rect id="麵뽼쪽" x="0" y="0" width="176" height="176"></rect>
                <rect id="麵뽼쪽" fill="#8B61FF" fill-rule="nonzero" transform="translate(46.503740, 41.142403) rotate(11.260000) translate(-46.503740, -41.142403) " x="41.2993653" y="37.7805281" width="10.40875" height="6.72375" rx="3.361875"></rect>
                <path d="M125.88125,156.51625 C125.85177,159.22698 123.901566,161.534914 121.23375,162.01625 L120.8075,162.085 L120.23,162.085 L85.70375,162.085 C83.6847528,162.085 81.8191223,161.007878 80.8096237,159.259375 C79.800125,157.510872 79.800125,155.356628 80.8096237,153.608125 C81.8191223,151.859622 83.6847528,150.7825 85.70375,150.7825 C86.327057,150.781109 86.9458582,150.88812 87.5325,151.09875 L87.5325,151.09875 L87.3675,110.6325 L118.92375,110.6325 L119.185,150.7825 L119.185,150.8925 C120.817338,150.610888 122.491156,151.057823 123.765842,152.115654 C125.040529,153.173485 125.788368,154.736224 125.8125,156.3925 L125.88125,156.51625 Z" id="紡籃" fill="#8B61FF" fill-rule="nonzero"></path>
                <rect id="麵뽼쪽" fill="#8B61FF" fill-rule="nonzero" transform="translate(105.397956, 71.659579) rotate(8.570000) translate(-105.397956, -71.659579) " x="79.8298311" y="24.5864536" width="51.13625" height="94.14625" rx="25.1625"></rect>
                <path d="M103.125,162.250009 C102.748376,162.242685 102.444815,161.939124 102.4375,161.5625 L102.4375,128.93375 C102.4375,128.554054 102.745304,128.24625 103.125,128.24625 C103.504696,128.24625 103.8125,128.554054 103.8125,128.93375 L103.8125,161.49375 C103.831992,161.687673 103.76826,161.880757 103.637156,162.024971 C103.506052,162.169186 103.319898,162.250977 103.125,162.250009 Z" id="紡籃" fill="#000000" fill-rule="nonzero"></path>
                <path d="M119.936641,73.7586314 L133.040391,73.7586314 C133.146706,73.7586314 133.232891,73.8448166 133.232891,73.9511314 L133.232891,108.848631 C133.232891,112.571881 130.218633,115.592298 126.495391,115.599881 L126.495391,115.599881 C122.766779,115.599881 119.744141,112.577244 119.744141,108.848631 L119.744141,73.9511314 C119.744141,73.8448166 119.830326,73.7586314 119.936641,73.7586314 L119.936641,73.7586314 Z" id="紡籃" fill="#8B61FF" fill-rule="nonzero" transform="translate(126.488516, 94.679256) rotate(-6.130000) translate(-126.488516, -94.679256) "></path>
                <path d="M121.1925,101.433754 C120.84086,101.434923 120.547454,101.165469 120.51875,100.815 L117.8925,76.3675 C117.852265,75.9920465 118.122372,75.6544126 118.4975,75.61125 C118.875439,75.5790259 119.210496,75.8531636 119.25375,76.23 L121.88,100.6775 C121.920235,101.052953 121.650128,101.390587 121.275,101.433754 L121.1925,101.433754 Z" id="紡籃" fill="#000000" fill-rule="nonzero"></path>
                <path d="M125.33125,114.46875 C125.240414,114.486202 125.147086,114.486202 125.05625,114.46875 C124.711294,114.312541 124.557603,113.906797 124.7125,113.56125 C125.533423,111.368209 125.784171,109.002659 125.44125,106.68625 C125.380499,106.306554 125.639054,105.949501 126.01875,105.88875 C126.398446,105.827999 126.755499,106.086554 126.81625,106.46625 C127.198101,109.049952 126.904402,111.688507 125.96375,114.125 C125.836931,114.352053 125.590757,114.485844 125.33125,114.46875 Z" id="紡籃" fill="#000000" fill-rule="nonzero"></path>
                <path d="M130.25375,114.52375 C130.1631,114.543059 130.0694,114.543059 129.97875,114.52375 C129.810603,114.451281 129.67831,114.314733 129.611199,114.144376 C129.544089,113.974019 129.547707,113.78393 129.62125,113.61625 C130.380317,111.407615 130.574131,109.044038 130.185,106.74125 C130.116655,106.361554 130.369054,105.998345 130.74875,105.93 C131.128446,105.861655 131.491655,106.114054 131.56,106.49375 C132.004142,109.052754 131.771887,111.683399 130.88625,114.125 C130.769771,114.368605 130.52377,114.523692 130.25375,114.52375 Z" id="紡籃" fill="#000000" fill-rule="nonzero"></path>
                <polygon id="紡籃" fill="#8B61FF" fill-rule="nonzero" points="86.9 67.27875 78.1 83.6275 45.25125 52.91 53.2125 42.00625"></polygon>
                <path d="M56.80125,62.1225 L46.92875,61.0225 C45.0273008,60.6222361 43.7561756,58.823474 44.01375,56.8975 L45.38875,35.81875 C45.3649782,33.8428969 46.9204059,32.2081729 48.895,32.13375 L58.97375,32.8075 C60.9831744,33.1312719 62.3534373,35.0176877 62.04,37.02875 L60.40375,58.61625 C60.4118561,59.5654813 60.031705,60.4767975 59.3514467,61.138881 C58.6711884,61.8009645 57.7499139,62.156303 56.80125,62.1225 Z" id="紡籃" fill="#1B1464" fill-rule="nonzero"></path>
                <rect id="麵뽼쪽" fill="#8B61FF" fill-rule="nonzero" transform="translate(46.479800, 46.332302) rotate(4.220000) translate(-46.479800, -46.332302) " x="41.2754246" y="44.0223023" width="10.40875" height="4.62" rx="2.1725"></rect>
                <rect id="麵뽼쪽" fill="#8B61FF" fill-rule="nonzero" transform="translate(46.940979, 50.520610) rotate(4.220000) translate(-46.940979, -50.520610) " x="41.2691036" y="48.2106095" width="11.34375" height="4.62" rx="2.2275"></rect>
                <rect id="麵뽼쪽" fill="#8B61FF" fill-rule="nonzero" transform="translate(46.239348, 54.748031) rotate(4.220000) translate(-46.239348, -54.748031) " x="41.2480981" y="52.4380313" width="9.9825" height="4.62" rx="2.13125"></rect>
                <path d="M78.1275,83.3526283 C77.950256,83.3558887 77.7783059,83.2920215 77.64625,83.17375 L62.30125,68.64 C62.1710976,68.5109105 62.0978887,68.3351883 62.0978887,68.151875 C62.0978887,67.9685617 62.1710976,67.7928395 62.30125,67.66375 C62.4279749,67.5344119 62.6014267,67.4615268 62.7825,67.4615268 C62.9635733,67.4615268 63.1370251,67.5344119 63.26375,67.66375 L78.595,82.17 C78.7956563,82.3633494 78.8597584,82.6586962 78.7573095,82.9178317 C78.6548606,83.1769671 78.4061252,83.3486339 78.1275,83.3526283 L78.1275,83.3526283 Z" id="紡籃" fill="#000000" fill-rule="nonzero"></path>
                <path d="M48.60625,49.225 L48.60625,49.225 L43.18875,48.8675 C42.8066316,48.8381733 42.5188326,48.5075106 42.5425,48.125 C42.5854566,47.7518731 42.9097895,47.4755896 43.285,47.4925 L48.68875,47.85 C49.0684458,47.85 49.37625,48.1578042 49.37625,48.5375 C49.37625,48.9171958 49.0684458,49.225 48.68875,49.225 L48.60625,49.225 Z" id="紡籃" fill="#000000" fill-rule="nonzero"></path>
                <path d="M47.53375,53.4325 L47.53375,53.4325 L43.2025,53.14375 C42.8260007,53.1144683 42.5403038,52.7922994 42.55625,52.415 C42.5924696,52.0363854 42.9187588,51.7523929 43.29875,51.76875 L47.63,52.0575 C48.0064993,52.0867817 48.2921962,52.4089506 48.27625,52.78625 C48.2657491,52.9712687 48.1810003,53.1442128 48.0412152,53.2658776 C47.9014301,53.3875424 47.7184483,53.4476231 47.53375,53.4325 Z" id="紡籃" fill="#000000" fill-rule="nonzero"></path>
                <path d="M99.275,51.095 L99.12375,51.095 C98.9446435,51.0556194 98.7886931,50.9463143 98.6905727,50.7913873 C98.5924523,50.6364603 98.5602948,50.4487531 98.60125,50.27 L99.26125,47.14875 C99.3409861,46.7690542 99.7134292,46.5258889 100.093125,46.605625 C100.472821,46.6853611 100.715986,47.0578042 100.63625,47.4375 L99.97625,50.55875 C99.9032892,50.8837869 99.6077983,51.1097506 99.275,51.095 L99.275,51.095 Z" id="紡籃" fill="#000000" fill-rule="nonzero"></path>
                <path d="M110.495,52.69 L110.39875,52.69 C110.023159,52.6401067 109.758734,52.2957391 109.8075,51.92 L110.23375,48.7575 C110.290457,48.3858904 110.630098,48.1250942 111.00375,48.16625 C111.379341,48.2161433 111.643766,48.5605109 111.595,48.93625 L111.1825,52.09875 C111.128719,52.4374186 110.837903,52.6875199 110.495,52.69 Z" id="紡籃" fill="#000000" fill-rule="nonzero"></path>
                <path d="M104.83,61.545 C104.183632,61.5429638 103.538972,61.4784978 102.905,61.3525 C99.597978,60.4992016 96.7585928,58.3807734 94.99875,55.45375 C94.811006,55.126931 94.9214012,54.7098827 95.24625,54.51875 C95.5772092,54.3297082 95.9985623,54.4396264 96.195,54.76625 C97.7688289,57.3462657 100.27478,59.2220365 103.19375,60.005 C106.02625,60.56875 109.05125,59.63375 112.2,57.255 C112.500163,57.0241374 112.930498,57.0794663 113.1625,57.37875 C113.382622,57.6844384 113.32191,58.1094234 113.025,58.34125 C110.721706,60.2842167 107.840355,61.4106509 104.83,61.545 Z" id="紡籃" fill="#000000" fill-rule="nonzero"></path>
            </g>
        </g>
    </g>
</svg>